# xmcd
# Copyright (C) 1995-1998 Ti Kan
#
# Track frame offsets:
#       151
#       15454
#       34479
#       66892
#       78443
#       96306
#       110597
#       126344
#       162444
#       173469
#       185872
#       202040
#       231548
#       241069
#       252795
#       269577
#       296578
#       308354
#
# Disc length: 4291 seconds
#
# Revision: 1
# Processed by: cddbd v1.5.2PL0 Copyright (c) Steve Scherf et al.
# Submitted via: CD-Transfer v1.0
#
DISCID=0410c112
DTITLE=Taste - R. Gallagher
DYEAR=70
DGENRE=
TTITLE0=Blister On The Moon
TTITLE1=Leavin' Blues
TTITLE2=Sugar Mama
TTITLE3=Hail
TTITLE4=Born On The Wrong Side Of Town
TTITLE5=Dual Carriageway Pain
TTITLE6=Same Old Story
TTITLE7=Catfish
TTITLE8=I'm Movin' On
TTITLE9=What's Going On
TTITLE10=Railway And Gun
TTITLE11=It's Happened, Before It'll Happen Again
TTITLE12=If The Day Was Any Longer
TTITLE13=Morning Sun
TTITLE14=Eat My Words
TTITLE15=On The Boards
TTITLE16=If I Don't Sing, I'll Cry
TTITLE17=I'll Remember You
EXTD=
EXTT0=
EXTT1=
EXTT2=
EXTT3=
EXTT4=
EXTT5=
EXTT6=
EXTT7=
EXTT8=
EXTT9=
EXTT10=
EXTT11=
EXTT12=
EXTT13=
EXTT14=
EXTT15=
EXTT16=
EXTT17=
PLAYORDER=
